<svg width="55" height="36" viewBox="0 0 55 36" fill="none" xmlns="http://www.w3.org/2000/svg">
<g clip-path="url(#clip0_769_3787)">
<path d="M0 7.45198C0 6.81748 0.334695 6.22982 0.880929 5.90528L8.09406 1.61956C9.29608 0.905368 10.8197 1.76998 10.8197 3.16629V32.834C10.8197 34.2303 9.29608 35.0948 8.09406 34.3807L0.880933 30.0949C0.334695 29.7704 0 29.1827 0 28.5482V7.45198Z" fill="#C61F1F"/>
<path d="M15.3279 7.6246C15.3279 6.89988 15.7633 6.24585 16.4326 5.96514L28.1539 1.04916C29.3424 0.550726 30.6557 1.42189 30.6557 2.70863V33.2912C30.6557 34.5779 29.3424 35.4491 28.1539 34.9506L16.4326 30.0347C15.7633 29.7539 15.3279 29.0999 15.3279 28.3752V7.6246Z" fill="#C61F1F"/>
<path d="M35.1638 7.73662C35.1638 6.95664 35.6671 6.26544 36.4102 6.0246L52.6398 0.76484C53.8048 0.387265 54.9999 1.25417 54.9999 2.47687V33.523C54.9999 34.7457 53.8048 35.6126 52.6398 35.2351L36.4102 29.9753C35.6671 29.7345 35.1638 29.0433 35.1638 28.2633V7.73662Z" fill="#C61F1F"/>
</g>
<defs>
<clipPath id="clip0_769_3787">
<rect width="55" height="36" fill="white"/>
</clipPath>
</defs>
</svg>
