<svg width="112" height="36" viewBox="0 0 112 36" fill="none" xmlns="http://www.w3.org/2000/svg">
<g clip-path="url(#clip0_813_6685)">
<g clip-path="url(#clip1_813_6685)">
<path d="M0 7.45186C0 6.81736 0.334695 6.22971 0.880929 5.90517L8.09406 1.61945C9.29608 0.905256 10.8197 1.76986 10.8197 3.16617V32.8338C10.8197 34.2302 9.29608 35.0947 8.09406 34.3805L0.880933 30.0948C0.334695 29.7703 0 29.1826 0 28.5481V7.45186Z" fill="#C61F1F"/>
<path d="M15.3279 7.62471C15.3279 6.89999 15.7633 6.24596 16.4326 5.96525L28.1539 1.04927C29.3424 0.550833 30.6557 1.422 30.6557 2.70874V33.2913C30.6557 34.578 29.3424 35.4492 28.1539 34.9507L16.4326 30.0348C15.7633 29.754 15.3279 29.1 15.3279 28.3753V7.62471Z" fill="#C61F1F"/>
<path d="M35.1638 7.73667C35.1638 6.95669 35.6671 6.26549 36.4102 6.02465L52.6398 0.764888C53.8048 0.387312 54.9999 1.25422 54.9999 2.47691V33.5231C54.9999 34.7458 53.8048 35.6127 52.6398 35.2351L36.4102 29.9754C35.6671 29.7345 35.1638 29.0433 35.1638 28.2633V7.73667Z" fill="#C61F1F"/>
</g>
<g clip-path="url(#clip2_813_6685)">
<path d="M98.5554 34V20H102.235V25.48L107.055 20H111.515L106.315 25.82L111.835 34H107.395L103.735 28.48L102.235 30.16V34H98.5554Z" fill="#C61F1F"/>
<path d="M90.5901 34.12C86.3701 34.12 83.8301 31.32 83.8301 27C83.8301 22.68 86.4501 19.88 90.7901 19.88C94.2301 19.88 96.6301 22.1 96.8901 25.22H93.2101C92.9501 23.88 92.0301 22.92 90.5901 22.92C88.6701 22.92 87.5901 24.6 87.5901 27C87.5901 29.4 88.6701 31.08 90.5901 31.08C92.0301 31.08 92.9501 30.12 93.2101 28.78H96.8901C96.6301 31.9 94.1501 34.12 90.5901 34.12Z" fill="#C61F1F"/>
<path d="M78 34V20H81.68V34H78Z" fill="#C61F1F"/>
<path d="M65 23.12V20H76.24V23.12H72.46V34H68.78V23.12H65Z" fill="#C61F1F"/>
<path d="M94.1477 16H84.3477V2H88.0277V12.88H94.1477V16Z" fill="#C61F1F"/>
<path d="M78 16V2H81.68V16H78Z" fill="#C61F1F"/>
<path d="M65.1001 16V2H70.6401C74.0001 2 76.0001 3.32 76.0001 5.7C76.0001 7.54 74.8801 8.56 73.1201 8.82C75.1801 9.04 76.4601 10.04 76.4601 12.02C76.4601 14.46 74.4601 16 70.9401 16H65.1001ZM70.7001 4.78H68.7801V7.58H70.7001C71.7201 7.58 72.3201 7.02 72.3201 6.18C72.3201 5.34 71.7201 4.78 70.7001 4.78ZM70.9801 10.32H68.7801V13.2H70.9801C72.0401 13.2 72.6801 12.66 72.6801 11.76C72.6801 10.86 72.0401 10.32 70.9801 10.32Z" fill="#C61F1F"/>
<path d="M97.75 13.8057H100.403C100.633 13.374 101.096 13.083 101.625 13.083C102.154 13.083 102.616 13.3742 102.846 13.8057H109.25V12.0635C108.136 11.4691 107.375 10.3237 107.375 9C107.375 7.67605 108.136 6.52984 109.25 5.93555V4.19434H102.846C102.616 4.6258 102.154 4.91699 101.625 4.91699C101.096 4.91699 100.633 4.62602 100.403 4.19434H97.75V13.8057ZM111.25 14.7773C111.25 15.3231 110.793 15.75 110.25 15.75H96.75C96.2067 15.75 95.75 15.3231 95.75 14.7773V3.22266C95.75 2.6769 96.2067 2.25 96.75 2.25H110.25C110.793 2.25 111.25 2.6769 111.25 3.22266V7.44434H111C110.094 7.44434 109.375 8.14971 109.375 9C109.375 9.85029 110.094 10.5557 111 10.5557H111.25V14.7773Z" fill="#C61F1F" stroke="#C61F1F" stroke-width="0.5"/>
</g>
</g>
<defs>
<clipPath id="clip0_813_6685">
<rect width="112" height="36" fill="white"/>
</clipPath>
<clipPath id="clip1_813_6685">
<rect width="55" height="36" fill="white"/>
</clipPath>
<clipPath id="clip2_813_6685">
<rect width="46.8355" height="32.12" fill="white" transform="translate(65 2)"/>
</clipPath>
</defs>
</svg>
